<svg xmlns="http://www.w3.org/2000/svg" width="18" height="18" viewBox="0 0 18 18">
  <path id="Path_3299" data-name="Path 3299" d="M145.921,60.925h-2.26v-.394a.563.563,0,1,0-1.125,0v.394h-3.013v-.394a.563.563,0,1,0-1.125,0v.394h-3.014v-.394a.563.563,0,1,0-1.125,0v.394H132a2.041,2.041,0,0,0-2.039,2.039V75.929A2.041,2.041,0,0,0,132,77.968h13.922a2.041,2.041,0,0,0,2.039-2.039V62.964a2.041,2.041,0,0,0-2.039-2.039ZM132,62.05h2.26v.394a.563.563,0,0,0,1.125,0V62.05H138.4v.394a.563.563,0,1,0,1.125,0V62.05h3.013v.394a.563.563,0,0,0,1.125,0V62.05h2.26a.915.915,0,0,1,.914.914V65.2h-15.75v-2.24A.915.915,0,0,1,132,62.05Zm13.922,14.793H132a.915.915,0,0,1-.914-.914v-9.6h15.75v9.6a.915.915,0,0,1-.914.914Zm-11.015-8.405a.563.563,0,0,1-.563.563h-1.179a.563.563,0,0,1,0-1.125h1.179A.563.563,0,0,1,134.906,68.438Zm3.47,0a.562.562,0,0,1-.563.563h-1.179a.563.563,0,1,1,0-1.125h1.179A.562.562,0,0,1,138.377,68.438Zm3.471,0a.563.563,0,0,1-.563.563h-1.179a.563.563,0,0,1,0-1.125h1.179A.563.563,0,0,1,141.847,68.438Zm3.47,0a.562.562,0,0,1-.563.563h-1.179a.563.563,0,0,1,0-1.125h1.179A.562.562,0,0,1,145.318,68.438Zm-10.411,3.125a.562.562,0,0,1-.563.563h-1.179a.563.563,0,0,1,0-1.125h1.179A.563.563,0,0,1,134.906,71.563Zm3.47,0a.562.562,0,0,1-.563.563h-1.179a.563.563,0,0,1,0-1.125h1.179A.563.563,0,0,1,138.377,71.563Zm3.471,0a.562.562,0,0,1-.563.563h-1.179a.563.563,0,1,1,0-1.125h1.179A.563.563,0,0,1,141.847,71.563Zm3.47,0a.562.562,0,0,1-.563.563h-1.179a.563.563,0,1,1,0-1.125h1.179A.563.563,0,0,1,145.317,71.563Zm-10.411,3.125a.563.563,0,0,1-.563.563h-1.179a.563.563,0,0,1,0-1.125h1.179A.563.563,0,0,1,134.906,74.688Zm3.47,0a.563.563,0,0,1-.563.563h-1.179a.563.563,0,1,1,0-1.125h1.179A.562.562,0,0,1,138.376,74.688Zm3.471,0a.563.563,0,0,1-.563.563h-1.179a.563.563,0,0,1,0-1.125h1.179A.563.563,0,0,1,141.847,74.688Z" transform="translate(-129.96 -59.968)" fill="#868d96"/>
</svg>
