<svg xmlns="http://www.w3.org/2000/svg" width="33.375" height="27.576" viewBox="0 0 33.375 27.576">
  <path id="Path_3230" data-name="Path 3230" d="M33.354,23.669A3.912,3.912,0,1,1,34.5,26.431,3.913,3.913,0,0,1,33.354,23.669Zm2.124,0A1.785,1.785,0,1,0,36,22.408a1.786,1.786,0,0,0-.523,1.261Zm-14.02,0A3.911,3.911,0,1,1,22.6,26.431a3.911,3.911,0,0,1-1.145-2.762Zm2.124,0h0a1.785,1.785,0,1,0,.523-1.261,1.785,1.785,0,0,0-.523,1.261Zm-1.465-4.422a1.062,1.062,0,0,1-1.009-.733L15.769,2.124h-3.6A1.062,1.062,0,1,1,12.17,0h4.369a1.061,1.061,0,0,1,1.009.733l1.108,3.4H43.42A1.062,1.062,0,0,1,44.482,5.2a1.078,1.078,0,0,1-.012.161,1.061,1.061,0,0,1-.025.439L41.018,18.463a1.062,1.062,0,0,1-1.025.784Zm.771-2.124H39.182l2.94-10.864H19.349Z" transform="translate(-11.108 -0.001)" fill="#727272"/>
</svg>
