<svg id="corporate_user" data-name="corporate user" xmlns="http://www.w3.org/2000/svg" xmlns:xlink="http://www.w3.org/1999/xlink" width="262.5" height="1203" viewBox="0 0 262.5 1203">
  <defs>
    <clipPath id="clip-path">
      <circle id="Ellipse_168" data-name="Ellipse 168" cx="76.734" cy="76.734" r="76.734" transform="translate(0 108.518) rotate(-45)" fill="none"/>
    </clipPath>
    <clipPath id="clip-path-2">
      <rect id="Rectangle_452" data-name="Rectangle 452" width="5.215" height="16.688" fill="none"/>
    </clipPath>
  </defs>
  <rect id="Rectangle_4446" data-name="Rectangle 4446" width="262" height="1203" fill="#004c7b"/>
  <circle id="Ellipse_181" data-name="Ellipse 181" cx="77.5" cy="77.5" r="77.5" transform="translate(54 49)" fill="#9cacb5"/>
  <g id="Group_26891" data-name="Group 26891" transform="translate(62.869 60.906)">
    <g id="Group_26261" data-name="Group 26261" transform="translate(-39.869 -40.87)" clip-path="url(#clip-path)">
      <path id="Path_4812" data-name="Path 4812" d="M132.209,86.941s5.159-4.19,6.857-.941a3.457,3.457,0,0,1,.317,2.059c-.417,3.347-2.408,15.989-8.548,14.188Z" transform="translate(2.7 12.942)" fill="#ffc2b0"/>
      <path id="Path_4813" data-name="Path 4813" d="M138.354,92.257a.374.374,0,0,1-.086-.01.388.388,0,0,1-.292-.465c.362-1.592.435-3.49-.033-3.777-.084-.049-.43-.153-1.38.644a.388.388,0,1,1-.5-.595c.36-.3,1.453-1.219,2.285-.712,1.2.734.533,3.971.386,4.613a.388.388,0,0,1-.379.3" transform="translate(1.569 12.402)" fill="#e37c77"/>
      <path id="Path_4814" data-name="Path 4814" d="M59.182,86.455s-5.16-4.19-6.858-.941a3.457,3.457,0,0,0-.317,2.059c.418,3.347,2.408,15.989,8.548,14.188Z" transform="translate(20.231 13.05)" fill="#ffc2b0"/>
      <path id="Path_4815" data-name="Path 4815" d="M54.937,92.257a.389.389,0,0,1-.379-.3c-.146-.642-.816-3.878.386-4.613.831-.507,1.926.411,2.285.712a.388.388,0,1,1-.5.595c-.953-.8-1.3-.693-1.38-.644-.512.313-.348,2.395-.033,3.777a.388.388,0,0,1-.292.465.375.375,0,0,1-.087.01" transform="translate(19.727 12.402)" fill="#e37c77"/>
      <path id="Path_4816" data-name="Path 4816" d="M89.967,118.788h0c-15.37,0-27.513-13.839-27.829-31.989V59.235c0-7.581,6.443-13.726,14.391-13.726h26.878c7.948,0,14.391,6.145,14.391,13.726V86.8c.159,19.208-12.46,31.989-27.829,31.989" transform="translate(17.971 21.668)" fill="#ffc2b0"/>
      <path id="Path_4817" data-name="Path 4817" d="M86.225,116.166c2.258,1.532,14.273,1.855,20.16-.645,0,0-8.467,9.6-20.16.645" transform="translate(12.617 6.105)" fill="#fff"/>
      <path id="Path_4818" data-name="Path 4818" d="M96.082,120.241c-2.968,0-6.429-.987-10.205-3.877a.389.389,0,0,1,.455-.632c2.031,1.379,13.825,1.85,19.789-.68a.389.389,0,0,1,.444.615,15.186,15.186,0,0,1-10.483,4.574m-7.59-3.035c7.694,4.6,13.611,1.228,16.149-.813a42.067,42.067,0,0,1-16.149.813" transform="translate(12.728 6.216)" fill="#e37c77"/>
      <path id="Path_4819" data-name="Path 4819" d="M97.343,124.9a11.541,11.541,0,0,1-6.461-2.273.389.389,0,0,1,.488-.606c.05.04,5.1,4.013,9.984.923a.389.389,0,0,1,.416.656,8.131,8.131,0,0,1-4.427,1.3" transform="translate(11.614 4.68)" fill="#e37c77"/>
      <path id="Path_4820" data-name="Path 4820" d="M59.847,87.041V67.455s3.328-5.9,3.932-8.621c0,0,21.931-5.294,25.107-16.184,0,0,23.76.28,22.106,16.423a6.324,6.324,0,0,0,.942,3.962c1.2,1.936,2.815,4.882,2.815,6.689V87.117s2.6-18.145,5.264-28.354a10.2,10.2,0,0,0,.283-1.543c.413-4.043,1.415-21.048-10.84-21.98,0,0-5.54-26.791-47.858-6.665a20.383,20.383,0,0,0-9.554,9.576A17.059,17.059,0,0,0,50.469,42.5s3.025-2.269,4.689-1.513c0,0-2.269,16.259,4.689,46.055" transform="translate(20.565 27.098)" fill="#010c39"/>
      <path id="Path_4821" data-name="Path 4821" d="M94.145,135.128a43.379,43.379,0,0,0-.07,7.317,7.416,7.416,0,0,0,1.528,2.974,21.746,21.746,0,0,0,8.006,5.218c.17.061.335.113.508.163,2.159.634,17.466,5.135,19.083,5.789,0,0,7.263,1.642,10.469,25.527H35.646c3.206-23.885,10.469-25.527,10.469-25.527,1.556-.63,15.8-4.825,18.788-5.7.368-.108.733-.219,1.093-.357a22.069,22.069,0,0,0,7.739-5.11,7.379,7.379,0,0,0,1.5-2.974,36.292,36.292,0,0,0-.327-7.552,18.586,18.586,0,0,0,19.233.235" transform="translate(23.86 1.799)" fill="#ffc2b0"/>
      <path id="Path_4822" data-name="Path 4822" d="M95.6,148.426c.383.733,4.544,3.976,8.006,5.218.17.061.336.112.508.163,2.16.634,18.452,5.152,20.068,5.806,0,0,8.166,3.5,9.485,27.067H35.646c1.939-24.845,10.47-27.083,10.47-27.083,1.555-.63,15.8-4.825,18.787-5.7.368-.108.733-.219,1.093-.357a22.054,22.054,0,0,0,7.739-5.11s11.253,6.421,21.868,0" transform="translate(23.86 -1.21)" fill="#424854"/>
      <path id="Path_4823" data-name="Path 4823" d="M94.56,100.405a18.44,18.44,0,0,1-2.689-.222.388.388,0,1,1,.114-.768c3.263.483,5.407.137,6.2-1,.944-1.357-.212-3.5-.225-3.525-2.385-6.381-2.258-15.6-2.252-15.994a.378.378,0,0,1,.4-.382.388.388,0,0,1,.382.4c0,.094-.131,9.467,2.181,15.657.033.054,1.377,2.536.159,4.291-.719,1.033-2.15,1.552-4.27,1.552" transform="translate(11.436 14.333)" fill="#e37c77"/>
      <path id="Path_4824" data-name="Path 4824" d="M84.905,146.977s-2.736.336-2.295,4.5c.236,2.231.217,3.172.278,3.936.283,3.555,1.493,15.291,9.457,20.711l2.03-19.17-2.19-2.054,2.092-2a1.827,1.827,0,0,0,.483-.789c.283-.934.533-2.807-2.177-2.461,0,0-7.478-.391-7.678-2.673" transform="translate(13.431 -0.887)" fill="#fff"/>
      <path id="Path_4825" data-name="Path 4825" d="M108.909,146.837s2.731-.5,2.571,4.6c-.071,2.246-.217,3.172-.278,3.937-.283,3.555-1.493,15.29-9.457,20.71l-2.029-19.17,2.19-2.054-2.092-2a1.826,1.826,0,0,1-.484-.789c-.282-.934-.532-2.807,2.178-2.462,0,0,7.2-.5,7.4-2.778" transform="translate(9.741 -0.853)" fill="#fff"/>
      <path id="Path_4826" data-name="Path 4826" d="M86.43,137.566a34.072,34.072,0,0,1,.194,3.682s9.417,4.735,18.6-.45c0,0,.012-2.636.061-3.511a25.735,25.735,0,0,1-18.859.279" transform="translate(12.571 1.267)" fill="#e37c77"/>
      <path id="Path_4827" data-name="Path 4827" d="M116.284,86.185c-.033,1.733-.974,2.793-2.153,2.793s-1.992-1.261-2.062-2.993c-.073-1.789.493-2.811,2.263-2.793,1.716.018,1.989,1.077,1.953,2.993" transform="translate(6.874 13.292)"/>
      <path id="Path_4828" data-name="Path 4828" d="M116.145,84.767c0,.58-.282,1.09-.666,1.09s-.757-.49-.757-1.07.341-1.07.726-1.07.7.47.7,1.05" transform="translate(6.282 13.175)" fill="#fefdff"/>
      <path id="Path_4829" data-name="Path 4829" d="M103.947,73.633c-.4-.459,3.77-5.023,16.392,0,0,0-11.709-2.355-14.954.028a.884.884,0,0,1-1.439-.031" transform="translate(8.683 15.936)" fill="#e37c77"/>
      <path id="Path_4830" data-name="Path 4830" d="M107.211,86.8a.389.389,0,0,1-.313-.62c.1-.13,2.388-3.181,5.826-3.525a7.4,7.4,0,0,1,5.747,2.2c.127.108,1.341,1.056,2.871-.473a.389.389,0,1,1,.55.55c-2.08,2.081-3.919.521-3.938.5a6.665,6.665,0,0,0-5.153-2.01c-3.1.31-5.256,3.185-5.278,3.213a.388.388,0,0,1-.313.158" transform="translate(8.038 13.419)" fill="#e37c77"/>
      <path id="Path_4831" data-name="Path 4831" d="M73.976,86.185c.033,1.733.974,2.793,2.153,2.793s1.992-1.261,2.062-2.993c.073-1.789-.493-2.811-2.263-2.793-1.716.018-1.989,1.077-1.953,2.993" transform="translate(15.341 13.292)"/>
      <path id="Path_4832" data-name="Path 4832" d="M74.916,84.767c0,.58.282,1.09.666,1.09s.757-.49.757-1.07-.341-1.07-.726-1.07-.7.47-.7,1.05" transform="translate(15.131 13.175)" fill="#fefdff"/>
      <path id="Path_4833" data-name="Path 4833" d="M82.828,73.633c.4-.459-3.77-5.023-16.392,0,0,0,11.709-2.355,14.954.028a.884.884,0,0,0,1.439-.031" transform="translate(17.016 15.936)" fill="#e37c77"/>
      <path id="Path_4834" data-name="Path 4834" d="M79.716,86.7a.389.389,0,0,1-.313-.157c-.022-.03-2.191-2.908-5.284-3.215a6.65,6.65,0,0,0-5.143,2.006c-.023.021-1.859,1.585-3.942-.5a.389.389,0,1,1,.55-.55c1.532,1.531,2.744.58,2.878.467a7.365,7.365,0,0,1,5.74-2.2c3.439.344,5.73,3.4,5.826,3.525a.388.388,0,0,1-.081.543.383.383,0,0,1-.231.077" transform="translate(17.353 13.441)" fill="#e37c77"/>
    </g>
  </g>
  <text id="Ramsha_Sajid" data-name="Ramsha Sajid" transform="translate(73 244)" fill="#fff" font-size="20" font-family="Lato-Bold, Lato" font-weight="700"><tspan x="0" y="0">Ramsha Sajid</tspan></text>
  <text id="Member_ID_:-XXXXXXXXX" data-name="Member ID :-XXXXXXXXX" transform="translate(45 254)" fill="#fff" font-size="14" font-family="Lato-Regular, Lato"><tspan x="0" y="14">Member ID :-XXXXXXXXX</tspan></text>
  <line id="Line_107" data-name="Line 107" x2="262" transform="translate(0.5 344.5)" fill="none" stroke="#fff" stroke-width="1" opacity="0.139"/>
  <g id="Group_26892" data-name="Group 26892">
    <circle id="Ellipse_169" data-name="Ellipse 169" cx="13.5" cy="13.5" r="13.5" transform="translate(170 169)" fill="#fff"/>
    <g id="Group_26264" data-name="Group 26264" transform="translate(187.344 175.12) rotate(42)">
      <g id="Group_26263" data-name="Group 26263" clip-path="url(#clip-path-2)">
        <path id="Path_4835" data-name="Path 4835" d="M2.607,16.688a.521.521,0,0,1-.434-.233L.088,13.326A.523.523,0,0,1,0,13.037V.521A.521.521,0,0,1,.521,0H4.693a.521.521,0,0,1,.521.521V13.037a.523.523,0,0,1-.088.289L3.041,16.455a.521.521,0,0,1-.434.233M1.043,12.879l1.564,2.347,1.564-2.347V1.043H1.043Z" transform="translate(0 0)"/>
        <rect id="Rectangle_451" data-name="Rectangle 451" width="4.172" height="1.043" transform="translate(0.521 3.129)"/>
      </g>
    </g>
  </g>
  <text id="_" data-name="" transform="translate(118.25 330)" fill="#fff" font-size="38" font-family="FontAwesome6Free-Solid, 'Font Awesome \36  Free'" letter-spacing="0.025em"><tspan x="0" y="0"></tspan></text>
  <g id="Component_1100_11" data-name="Component 1100 – 11" transform="translate(0 378.5)">
    <g id="hra" transform="translate(57.5 626.5)">
      <text id="My_HRA" data-name="My HRA" transform="translate(0 18)" fill="#fff" font-size="18" font-family="Lato-Regular, Lato" letter-spacing="0.025em"><tspan x="0" y="0">My HRA</tspan></text>
    </g>
    <g id="health_records" data-name="health records" transform="translate(57.5 548.5)">
      <text id="My_Health_Records_" data-name="My Health Records " transform="translate(0 18)" fill="#fff" font-size="18" font-family="Lato-Regular, Lato" letter-spacing="0.025em"><tspan x="0" y="0">My Health Records </tspan></text>
    </g>
    <g id="payments" transform="translate(57.5 464.5)">
      <text id="My_Payments" data-name="My Payments" transform="translate(0 21)" fill="#fff" font-size="18" font-family="Lato-Regular, Lato" letter-spacing="0.025em"><tspan x="0" y="0">My Payments</tspan></text>
      <text id="_2" data-name="+" transform="translate(119 24)" fill="#fff" font-size="24" font-family="Lato-Regular, Lato" letter-spacing="0.025em"><tspan x="0" y="0">+</tspan></text>
    </g>
    <g id="services" transform="translate(57.5 386.5)">
      <text id="My_Services" data-name="My Services" transform="translate(0 18)" fill="#fff" font-size="18" font-family="Lato-Regular, Lato" letter-spacing="0.025em"><tspan x="0" y="0">My Services</tspan></text>
    </g>
    <g id="address_book" data-name="address book" transform="translate(57.5 309.5)">
      <text id="MY_Address_Book" data-name="MY Address Book" transform="translate(0 18)" fill="#fff" font-size="18" font-family="Lato-Regular, Lato" letter-spacing="0.025em"><tspan x="0" y="0">My Address Book</tspan></text>
    </g>
    <g id="appointements" transform="translate(57.5 231.5)">
      <text id="My_appointments" data-name="My appointments" transform="translate(0 18)" fill="#fff" font-size="18" font-family="Lato-Regular, Lato" letter-spacing="0.025em"><tspan x="0" y="0">My Appointments</tspan></text>
    </g>
    <g id="plans2" transform="translate(58 161.5)">
      <text id="My_Plans" data-name="My Plans" transform="translate(0 18)" fill="#fff" font-size="18" font-family="Lato-Regular, Lato" letter-spacing="0.025em"><tspan x="0" y="0">My Plans</tspan></text>
    </g>
    <g id="manage">
      <rect id="Rectangle_4444" data-name="Rectangle 4444" width="262" height="45" fill="#f16122"/>
      <text id="Manage_Profile" data-name="Manage Profile" transform="translate(57.5 28.5)" fill="#fff" font-size="18" font-family="Lato-Regular, Lato" letter-spacing="0.025em"><tspan x="0" y="0">Manage Profile</tspan></text>
      <text id="_3" data-name="+" transform="translate(190 31.5)" fill="#fff" font-size="24" font-family="Lato-Regular, Lato" letter-spacing="0.025em"><tspan x="0" y="0">+</tspan></text>
      <g id="Component_1090_10" data-name="Component 1090 – 10" transform="translate(72 65.5)">
        <text id="Profile_Details" data-name="Profile Details" transform="translate(0 16)" fill="#a5d3f0" font-size="16" font-family="Lato-Regular, Lato" letter-spacing="0.027em"><tspan x="0" y="0">Profile Details</tspan></text>
      </g>
      <g id="Component_1091_3" data-name="Component 1091 – 3" transform="translate(72 102.5)">
        <text id="Dependants" transform="translate(0 16)" fill="#fff" font-size="16" font-family="Lato-Regular, Lato" letter-spacing="0.027em"><tspan x="0" y="0">Dependants</tspan></text>
      </g>
    </g>
  </g>
</svg>
