<svg xmlns="http://www.w3.org/2000/svg" xmlns:xlink="http://www.w3.org/1999/xlink" width="27" height="27" viewBox="0 0 27 27">
  <defs>
    <clipPath id="clip-path">
      <rect id="Rectangle_452" data-name="Rectangle 452" width="5.215" height="16.688" fill="none"/>
    </clipPath>
  </defs>
  <g id="Group_26892" data-name="Group 26892" transform="translate(-170 -169)">
    <circle id="Ellipse_169" data-name="Ellipse 169" cx="13.5" cy="13.5" r="13.5" transform="translate(170 169)" fill="#fff"/>
    <g id="Group_26264" data-name="Group 26264" transform="translate(187.344 175.12) rotate(42)">
      <g id="Group_26263" data-name="Group 26263" clip-path="url(#clip-path)">
        <path id="Path_4835" data-name="Path 4835" d="M2.607,16.688a.521.521,0,0,1-.434-.233L.088,13.326A.523.523,0,0,1,0,13.037V.521A.521.521,0,0,1,.521,0H4.693a.521.521,0,0,1,.521.521V13.037a.523.523,0,0,1-.088.289L3.041,16.455a.521.521,0,0,1-.434.233M1.043,12.879l1.564,2.347,1.564-2.347V1.043H1.043Z" transform="translate(0 0)"/>
        <rect id="Rectangle_451" data-name="Rectangle 451" width="4.172" height="1.043" transform="translate(0.521 3.129)"/>
      </g>
    </g>
  </g>
</svg>
