<svg xmlns="http://www.w3.org/2000/svg" xmlns:xlink="http://www.w3.org/1999/xlink" width="16" height="18.667" viewBox="0 0 16 18.667">
  <defs>
    <clipPath id="clip-path">
      <rect id="Rectangle_4300" data-name="Rectangle 4300" width="16" height="18.667" fill="#0076be"/>
    </clipPath>
  </defs>
  <g id="Group_26604" data-name="Group 26604" clip-path="url(#clip-path)">
    <path id="Path_5532" data-name="Path 5532" d="M13.949,5.332A8,8,0,1,1,6.667,2.787V.889H5.778a.444.444,0,1,1,0-.889h4.444a.444.444,0,0,1,0,.889H9.333v1.9a7.985,7.985,0,0,1,4,1.933l1.035-1.035a.434.434,0,1,1,.614.614ZM8.444.889H7.556v1.8c.148-.008.294-.023.444-.023s.3.013.444.021ZM8,3.556a7.111,7.111,0,1,0,7.111,7.111A7.111,7.111,0,0,0,8,3.556m0,8.889a1.778,1.778,0,0,1-1.778-1.778,1.757,1.757,0,0,1,.257-.907L4.127,7.408a.434.434,0,0,1,.614-.614L7.093,9.146A1.759,1.759,0,0,1,8,8.889a1.778,1.778,0,1,1,0,3.556M8,9.778a.889.889,0,1,0,.889.889A.889.889,0,0,0,8,9.778" fill="#0076be" fill-rule="evenodd"/>
  </g>
</svg>
