<svg xmlns="http://www.w3.org/2000/svg" width="15" height="17.429" viewBox="0 0 15 17.429">
  <path id="Path_1" data-name="Path 1" d="M183.124,78.18a.484.484,0,0,0-.257.862l1.875,1.565H183.9a7.5,7.5,0,1,0,7.5,7.462,7.567,7.567,0,0,0-.779-3.327.484.484,0,1,0-.862.431,6.541,6.541,0,1,1-12.392,2.9,6.475,6.475,0,0,1,6.532-6.494h.839l-1.875,1.558a.486.486,0,0,0,.62.748l2.9-2.419a.484.484,0,0,0,0-.748l-2.9-2.419a.484.484,0,0,0-.363-.113Z" transform="translate(-176.403 -78.177)" fill="#0076be"/>
</svg>
